<svg width="75" height="37" viewBox="0 0 75 37" fill="none" xmlns="http://www.w3.org/2000/svg">
<path d="M5.096 5.904C8.168 2.608 12.024 0.959999 16.664 0.959999C19.8 0.959999 23.448 1.728 27.608 3.264V10.08H27.32C26.008 8.064 24.472 6.352 22.712 4.944C20.952 3.536 19.064 2.832 17.048 2.832C13.976 2.832 11.432 4.368 9.416 7.44C7.4 10.512 6.392 14.272 6.392 18.72C6.392 23.168 7.448 26.944 9.56 30.048C11.672 33.12 14.184 34.656 17.096 34.656C18.888 34.656 20.696 33.968 22.52 32.592C24.344 31.184 25.944 29.456 27.32 27.408H27.608V34.272C23.448 35.808 19.752 36.576 16.52 36.576C12.008 36.576 8.2 34.912 5.096 31.584C1.992 28.224 0.44 23.952 0.44 18.768C0.44 13.52 1.992 9.232 5.096 5.904ZM31.1923 29.184C31.1923 26.496 32.2643 24.544 34.4083 23.328C36.5523 22.08 38.7923 21.456 41.1283 21.456C41.9923 21.456 42.9043 21.536 43.8643 21.696C44.8883 21.856 45.6403 22.016 46.1203 22.176V19.104C46.1203 17.344 45.7523 15.984 45.0163 15.024C44.2803 14.064 43.3363 13.584 42.1843 13.584C40.8403 13.584 39.1443 14.288 37.0963 15.696C35.0803 17.104 33.6883 18.32 32.9203 19.344H32.7763V13.728C36.2963 12.448 39.5123 11.808 42.4243 11.808C45.1763 11.808 47.3043 12.48 48.8083 13.824C50.3443 15.136 51.1123 16.944 51.1123 19.248V30.912C51.1123 32.736 51.7043 33.648 52.8883 33.648C53.2723 33.648 53.7043 33.568 54.1843 33.408L54.2323 33.552C53.6243 35.312 52.3283 36.192 50.3443 36.192C48.0083 36.192 46.6323 35.04 46.2163 32.736C44.3923 35.168 41.9443 36.384 38.8723 36.384C36.5043 36.384 34.6323 35.68 33.2563 34.272C31.8803 32.832 31.1923 31.136 31.1923 29.184ZM36.4243 28.608C36.4243 30.048 36.9043 31.248 37.8643 32.208C38.8243 33.136 39.9923 33.6 41.3683 33.6C43.1603 33.6 44.7443 32.768 46.1203 31.104V23.568C45.8643 23.568 45.6563 23.552 45.4963 23.52C44.6003 23.36 43.7523 23.28 42.9523 23.28C41.3203 23.28 39.8163 23.728 38.4403 24.624C37.0963 25.488 36.4243 26.816 36.4243 28.608ZM56.4635 1.296V1.104L62.6555 0.287999V29.04C62.6555 30.64 62.9915 32.912 63.6635 35.856V36H56.6075V35.856C57.3115 32.752 57.6635 30.48 57.6635 29.04V7.92C57.6635 5.52 57.2635 3.312 56.4635 1.296ZM67.1041 1.296V1.104L73.2961 0.287999V29.04C73.2961 30.64 73.6321 32.912 74.3041 35.856V36H67.2481V35.856C67.9521 32.752 68.3041 30.48 68.3041 29.04V7.92C68.3041 5.52 67.9041 3.312 67.1041 1.296Z" fill="white"/>
</svg>
