<svg width="572" height="124" viewBox="0 0 572 124" fill="none" xmlns="http://www.w3.org/2000/svg">
<path d="M38.6602 122H12.4102L12.5742 101.328H38.6602C44.6211 101.328 49.6523 99.9609 53.7539 97.2266C57.8555 94.4375 60.9727 90.3359 63.1055 84.9219C65.2383 79.4531 66.3047 72.8086 66.3047 64.9883V59.4922C66.3047 53.5859 65.7031 48.3906 64.5 43.9062C63.2969 39.3672 61.5195 35.5664 59.168 32.5039C56.8164 29.4414 53.8906 27.1445 50.3906 25.6133C46.9453 24.082 42.9805 23.3164 38.4961 23.3164H11.918V2.5625H38.4961C46.5898 2.5625 53.9727 3.92969 60.6445 6.66406C67.3711 9.39844 73.168 13.3086 78.0352 18.3945C82.957 23.4805 86.7578 29.4961 89.4375 36.4414C92.1172 43.3867 93.457 51.125 93.457 59.6562V64.9883C93.457 73.4648 92.1172 81.2031 89.4375 88.2031C86.7578 95.1484 82.957 101.164 78.0352 106.25C73.168 111.281 67.3984 115.164 60.7266 117.898C54.0547 120.633 46.6992 122 38.6602 122ZM27.5859 2.5625V122H0.84375V2.5625H27.5859ZM190.992 101.328V122H127.418V101.328H190.992ZM136.523 2.5625V122H109.781V2.5625H136.523ZM182.789 50.6328V70.6484H127.418V50.6328H182.789ZM191.074 2.5625V23.3164H127.418V2.5625H191.074ZM266.051 90.5C266.051 88.4766 265.75 86.6719 265.148 85.0859C264.547 83.4453 263.453 81.9414 261.867 80.5742C260.281 79.207 258.039 77.8398 255.141 76.4727C252.242 75.0508 248.441 73.6016 243.738 72.125C238.379 70.375 233.266 68.4062 228.398 66.2188C223.586 63.9766 219.293 61.3789 215.52 58.4258C211.746 55.4727 208.766 52.0273 206.578 48.0898C204.445 44.1523 203.379 39.5586 203.379 34.3086C203.379 29.2227 204.5 24.6289 206.742 20.5273C208.984 16.4258 212.129 12.9258 216.176 10.0273C220.223 7.07422 224.98 4.83203 230.449 3.30078C235.918 1.71484 241.934 0.921875 248.496 0.921875C257.246 0.921875 264.93 2.48047 271.547 5.59766C278.219 8.66016 283.414 12.9805 287.133 18.5586C290.852 24.082 292.711 30.5078 292.711 37.8359H266.133C266.133 34.6094 265.449 31.7656 264.082 29.3047C262.77 26.7891 260.746 24.8203 258.012 23.3984C255.332 21.9766 251.969 21.2656 247.922 21.2656C243.984 21.2656 240.676 21.8672 237.996 23.0703C235.371 24.2188 233.375 25.8047 232.008 27.8281C230.695 29.8516 230.039 32.0664 230.039 34.4727C230.039 36.3867 230.531 38.1367 231.516 39.7227C232.555 41.2539 234.031 42.7031 235.945 44.0703C237.914 45.3828 240.32 46.6406 243.164 47.8438C246.008 49.0469 249.262 50.1953 252.926 51.2891C259.324 53.3125 264.984 55.5547 269.906 58.0156C274.883 60.4766 279.066 63.2656 282.457 66.3828C285.848 69.5 288.391 73.0273 290.086 76.9648C291.836 80.9023 292.711 85.3594 292.711 90.3359C292.711 95.6406 291.672 100.344 289.594 104.445C287.57 108.547 284.617 112.047 280.734 114.945C276.906 117.789 272.312 119.949 266.953 121.426C261.594 122.902 255.605 123.641 248.988 123.641C242.973 123.641 237.039 122.875 231.188 121.344C225.336 119.758 220.031 117.352 215.273 114.125C210.57 110.898 206.797 106.797 203.953 101.82C201.164 96.7891 199.77 90.8281 199.77 83.9375H226.512C226.512 87.5469 227.031 90.6094 228.07 93.125C229.109 95.5859 230.586 97.582 232.5 99.1133C234.469 100.645 236.848 101.738 239.637 102.395C242.426 103.051 245.543 103.379 248.988 103.379C252.98 103.379 256.207 102.832 258.668 101.738C261.184 100.59 263.043 99.0312 264.246 97.0625C265.449 95.0938 266.051 92.9062 266.051 90.5ZM336.926 2.5625V122H310.266V2.5625H336.926ZM454.723 58.918V107.07C452.754 109.312 449.746 111.719 445.699 114.289C441.707 116.859 436.594 119.074 430.359 120.934C424.125 122.738 416.688 123.641 408.047 123.641C400.227 123.641 393.117 122.383 386.719 119.867C380.32 117.297 374.824 113.551 370.23 108.629C365.637 103.652 362.082 97.582 359.566 90.418C357.105 83.2539 355.875 75.0508 355.875 65.8086V58.7539C355.875 49.5117 357.105 41.3086 359.566 34.1445C362.027 26.9805 365.5 20.9375 369.984 16.0156C374.469 11.0391 379.801 7.26562 385.98 4.69531C392.16 2.125 398.996 0.839844 406.488 0.839844C417.152 0.839844 425.875 2.5625 432.656 6.00781C439.438 9.39844 444.578 14.1016 448.078 20.1172C451.633 26.1328 453.82 33.0508 454.641 40.8711H428.883C428.336 36.8789 427.242 33.4336 425.602 30.5352C424.016 27.6367 421.746 25.4219 418.793 23.8906C415.84 22.3047 412.012 21.5117 407.309 21.5117C403.535 21.5117 400.117 22.3047 397.055 23.8906C394.047 25.4219 391.504 27.7461 389.426 30.8633C387.348 33.9805 385.762 37.8633 384.668 42.5117C383.574 47.1055 383.027 52.4648 383.027 58.5898V65.8086C383.027 71.9336 383.574 77.3203 384.668 81.9688C385.816 86.6172 387.484 90.5 389.672 93.6172C391.859 96.6797 394.621 99.0039 397.957 100.59C401.348 102.176 405.285 102.969 409.77 102.969C413.27 102.969 416.223 102.695 418.629 102.148C421.035 101.547 423.004 100.809 424.535 99.9336C426.066 99.0039 427.215 98.1562 427.98 97.3906V77.5391H406.734V58.918H454.723ZM571.535 2.5625V122H544.875L499.758 44.8086V122H473.016V2.5625H499.758L544.957 79.7539V2.5625H571.535Z" fill="#0B0E17" fill-opacity="0.4"/>
</svg>
