<svg width="139" height="50" viewBox="0 0 139 50" fill="none" xmlns="http://www.w3.org/2000/svg">
<path d="M0.100006 48.9218C0.100006 48.8769 0.257239 48.248 0.571704 47.035C0.88617 45.7772 1.15571 44.4519 1.38033 43.0593C1.60495 41.6217 1.71726 40.274 1.71726 39.0162L1.71726 10.8491C1.71726 9.5912 1.60495 8.26595 1.38033 6.87331C1.15571 5.43576 0.88617 4.11051 0.571704 2.89757C0.257239 1.63971 0.100006 0.988319 0.100006 0.943396L0.100006 0.673853L20.9221 0.673853C25.684 0.673853 29.5025 1.81941 32.3776 4.11051C35.2528 6.40162 36.6903 9.47889 36.6903 13.3423C36.6903 17.0261 35.4774 19.9461 33.0515 22.1024C30.6705 24.2138 27.436 25.4942 23.348 25.9434C27.436 26.9766 30.4684 29.3351 32.445 33.0189C33.1638 34.4115 33.9949 36.0737 34.9383 38.0054C35.8817 39.9371 36.6005 41.4196 37.0946 42.4528C37.6337 43.4412 38.3076 44.5418 39.1162 45.7547C39.9248 46.9227 40.8008 47.9784 41.7442 48.9218V49.1914H31.0299C29.6822 47.9335 27.481 43.7332 24.4262 36.5903C22.0003 30.9299 18.9005 27.673 15.127 26.8194H10.6121L10.6121 39.0162C10.6121 41.0377 11.1512 44.3396 12.2294 48.9218V49.1914H0.100006L0.100006 48.9218ZM10.6121 24.1914H17.6876C20.6975 24.1914 23.0111 23.3154 24.6283 21.5633C26.2905 19.8113 27.1216 17.2057 27.1216 13.7466C27.1216 10.3774 26.3354 7.77179 24.7631 5.92992C23.1908 4.04313 20.9446 3.09973 18.0245 3.09973L10.6121 3.09973L10.6121 24.1914ZM12.2294 26.6846C12.3642 26.6846 12.4765 26.6846 12.5663 26.6846C12.2968 26.6846 12.0946 26.7071 11.9598 26.752C12.0048 26.752 12.0946 26.7296 12.2294 26.6846Z" fill="white"/>
<path d="M44.646 46.8329C45.0503 45.6199 45.4097 44.4969 45.7242 43.4636C46.0386 42.4304 46.3306 41.0827 46.6002 39.4205C46.9146 37.7583 47.0719 36.2309 47.0719 34.8383V10.9164C47.0719 9.92812 46.9596 8.84995 46.735 7.68194C46.5103 6.51393 46.2633 5.54807 45.9937 4.78437C45.7242 3.97574 45.4322 3.16711 45.1177 2.35849C44.8482 1.54986 44.6909 1.07817 44.646 0.943396V0.673853L55.8994 0.673853L70.6568 38.0728L84.8077 0.673853L95.2525 0.673853V0.943396C95.2525 0.988319 95.0952 1.63971 94.7808 2.89757C94.4663 4.11051 94.1968 5.43576 93.9722 6.87331C93.7475 8.26595 93.6352 9.5912 93.6352 10.8491V39.0162C93.6352 40.274 93.7475 41.6217 93.9722 43.0593C94.1968 44.4519 94.4663 45.7772 94.7808 47.035C95.0952 48.248 95.2525 48.8769 95.2525 48.9218V49.1914H83.1905V48.9218C84.2687 44.3396 84.8077 41.0377 84.8077 39.0162V8.76011L69.5786 49.1914H66.4789V49.124L65.8724 49.1914L50.0368 8.96227C49.9919 9.36658 49.9695 10.018 49.9695 10.9164V34.8383C49.9695 36.2309 50.1042 37.7583 50.3738 39.4205C50.6882 41.0827 51.0027 42.4304 51.3172 43.4636C51.6316 44.4969 51.991 45.6424 52.3953 46.9003C52.7996 48.1132 53.0243 48.7646 53.0692 48.8545V49.1914L43.9721 49.1914V48.8545C44.0171 48.7646 44.2417 48.0907 44.646 46.8329Z" fill="white"/>
<path d="M106.378 6.9407C110.736 2.31357 116.261 0 122.955 0C127.447 0 132.726 1.03324 138.79 3.09973V13.9488H138.386C133.489 6.53639 128.615 2.83019 123.763 2.83019C119.81 2.83019 116.486 4.96406 113.79 9.2318C111.14 13.4546 109.815 18.6882 109.815 24.9326C109.815 31.177 111.185 36.4555 113.925 40.7682C116.71 45.0359 120.012 47.1698 123.831 47.1698C126.302 47.1698 128.795 46.1141 131.311 44.0027C133.871 41.8464 136.23 39.1509 138.386 35.9164H138.79V46.9003C132.501 48.9668 127.11 50 122.618 50C116.194 50 110.78 47.664 106.378 42.9919C101.975 38.3199 99.7741 32.3226 99.7741 25C99.7741 17.5876 101.975 11.5678 106.378 6.9407Z" fill="white"/>
</svg>
