<svg width="734" height="124" viewBox="0 0 734 124" fill="none" xmlns="http://www.w3.org/2000/svg">
<path d="M27.3086 2.5625V122H0.648438V2.5625H27.3086ZM147.402 2.5625V122H120.742L75.625 44.8086V122H48.8828V2.5625H75.625L120.824 79.7539V2.5625H147.402ZM220.328 2.5625V122H193.668V2.5625H220.328ZM256.668 2.5625V23.3164H158.066V2.5625L256.668 2.5625ZM351.086 101.328V122H287.512V101.328H351.086ZM296.617 2.5625V122H269.875V2.5625H296.617ZM342.883 50.6328V70.6484H287.512V50.6328H342.883ZM351.168 2.5625V23.3164H287.512V2.5625H351.168ZM364.211 2.5625H410.066C419.199 2.5625 427.102 3.92969 433.773 6.66406C440.5 9.39844 445.668 13.4453 449.277 18.8047C452.887 24.1641 454.691 30.7812 454.691 38.6562C454.691 45.2188 453.625 50.7969 451.492 55.3906C449.359 59.9844 446.352 63.7852 442.469 66.793C438.641 69.8008 434.156 72.2344 429.016 74.0938L420.32 78.8516H381.273L381.109 58.0977H410.148C414.141 58.0977 417.449 57.3867 420.074 55.9648C422.699 54.543 424.668 52.5469 425.98 49.9766C427.348 47.3516 428.031 44.2891 428.031 40.7891C428.031 37.1797 427.348 34.0625 425.98 31.4375C424.613 28.8125 422.59 26.8164 419.91 25.4492C417.285 24.0273 414.004 23.3164 410.066 23.3164H390.953V122H364.211V2.5625ZM430.328 122L403.504 68.9258L431.723 68.8438L458.957 120.77V122H430.328ZM501.285 2.5625V122H474.625V2.5625H501.285ZM622.445 59.6562V64.9883C622.445 74.0664 621.188 82.2148 618.672 89.4336C616.211 96.6523 612.684 102.805 608.09 107.891C603.551 112.977 598.137 116.887 591.848 119.621C585.613 122.301 578.695 123.641 571.094 123.641C563.492 123.641 556.547 122.301 550.258 119.621C543.969 116.887 538.5 112.977 533.852 107.891C529.258 102.805 525.703 96.6523 523.188 89.4336C520.672 82.2148 519.414 74.0664 519.414 64.9883V59.6562C519.414 50.5781 520.672 42.4297 523.188 35.2109C525.703 27.9375 529.23 21.7578 533.77 16.6719C538.363 11.5859 543.805 7.70313 550.094 5.02344C556.383 2.28906 563.328 0.921875 570.93 0.921875C578.531 0.921875 585.477 2.28906 591.766 5.02344C598.055 7.70313 603.469 11.5859 608.008 16.6719C612.602 21.7578 616.156 27.9375 618.672 35.2109C621.188 42.4297 622.445 50.5781 622.445 59.6562ZM595.457 64.9883V59.4922C595.457 53.4219 594.91 48.0625 593.816 43.4141C592.723 38.7109 591.137 34.7734 589.059 31.6016C586.98 28.4297 584.41 26.0508 581.348 24.4648C578.285 22.8242 574.812 22.0039 570.93 22.0039C566.883 22.0039 563.355 22.8242 560.348 24.4648C557.34 26.0508 554.797 28.4297 552.719 31.6016C550.695 34.7734 549.137 38.7109 548.043 43.4141C547.004 48.0625 546.484 53.4219 546.484 59.4922V64.9883C546.484 71.0039 547.004 76.3633 548.043 81.0664C549.137 85.7148 550.723 89.6523 552.801 92.8789C554.879 96.1055 557.422 98.5391 560.43 100.18C563.492 101.82 567.047 102.641 571.094 102.641C574.977 102.641 578.422 101.82 581.43 100.18C584.492 98.5391 587.062 96.1055 589.141 92.8789C591.219 89.6523 592.777 85.7148 593.816 81.0664C594.91 76.3633 595.457 71.0039 595.457 64.9883ZM638.852 2.5625H684.707C693.84 2.5625 701.742 3.92969 708.414 6.66406C715.141 9.39844 720.309 13.4453 723.918 18.8047C727.527 24.1641 729.332 30.7812 729.332 38.6562C729.332 45.2188 728.266 50.7969 726.133 55.3906C724 59.9844 720.992 63.7852 717.109 66.793C713.281 69.8008 708.797 72.2344 703.656 74.0938L694.961 78.8516H655.914L655.75 58.0977H684.789C688.781 58.0977 692.09 57.3867 694.715 55.9648C697.34 54.543 699.309 52.5469 700.621 49.9766C701.988 47.3516 702.672 44.2891 702.672 40.7891C702.672 37.1797 701.988 34.0625 700.621 31.4375C699.254 28.8125 697.23 26.8164 694.551 25.4492C691.926 24.0273 688.645 23.3164 684.707 23.3164H665.594V122H638.852V2.5625ZM704.969 122L678.145 68.9258L706.363 68.8438L733.598 120.77V122H704.969Z" fill="#0B0E17" fill-opacity="0.4"/>
</svg>
