<svg width="104" height="38" viewBox="0 0 104 38" fill="none" xmlns="http://www.w3.org/2000/svg">
<path d="M0.1 36.8C0.1 36.7667 0.216667 36.3 0.45 35.4C0.683333 34.4667 0.883333 33.4833 1.05 32.45C1.21667 31.3833 1.3 30.3833 1.3 29.45L1.3 8.55C1.3 7.61667 1.21667 6.63333 1.05 5.6C0.883333 4.53333 0.683333 3.55 0.45 2.65C0.216667 1.71666 0.1 1.23333 0.1 1.2V0.999999L15.55 0.999999C19.0833 0.999999 21.9167 1.85 24.05 3.55C26.1833 5.25 27.25 7.53333 27.25 10.4C27.25 13.1333 26.35 15.3 24.55 16.9C22.7833 18.4667 20.3833 19.4167 17.35 19.75C20.3833 20.5167 22.6333 22.2667 24.1 25C24.6333 26.0333 25.25 27.2667 25.95 28.7C26.65 30.1333 27.1833 31.2333 27.55 32C27.95 32.7333 28.45 33.55 29.05 34.45C29.65 35.3167 30.3 36.1 31 36.8V37H23.05C22.05 36.0667 20.4167 32.95 18.15 27.65C16.35 23.45 14.05 21.0333 11.25 20.4H7.9L7.9 29.45C7.9 30.95 8.3 33.4 9.1 36.8V37H0.1V36.8ZM7.9 18.45H13.15C15.3833 18.45 17.1 17.8 18.3 16.5C19.5333 15.2 20.15 13.2667 20.15 10.7C20.15 8.2 19.5667 6.26667 18.4 4.9C17.2333 3.5 15.5667 2.8 13.4 2.8L7.9 2.8L7.9 18.45ZM9.1 20.3C9.2 20.3 9.28333 20.3 9.35 20.3C9.15 20.3 9 20.3167 8.9 20.35C8.93333 20.35 9 20.3333 9.1 20.3ZM33.1531 35.25C33.4531 34.35 33.7198 33.5167 33.9531 32.75C34.1865 31.9833 34.4031 30.9833 34.6031 29.75C34.8365 28.5167 34.9531 27.3833 34.9531 26.35V8.6C34.9531 7.86667 34.8698 7.06666 34.7031 6.2C34.5365 5.33333 34.3531 4.61667 34.1531 4.05C33.9531 3.45 33.7365 2.85 33.5031 2.25C33.3031 1.65 33.1865 1.3 33.1531 1.2V0.999999L41.5031 0.999999L52.4531 28.75L62.9531 0.999999H70.7031V1.2C70.7031 1.23333 70.5865 1.71666 70.3531 2.65C70.1198 3.55 69.9198 4.53333 69.7531 5.6C69.5865 6.63333 69.5031 7.61667 69.5031 8.55V29.45C69.5031 30.3833 69.5865 31.3833 69.7531 32.45C69.9198 33.4833 70.1198 34.4667 70.3531 35.4C70.5865 36.3 70.7031 36.7667 70.7031 36.8V37H61.7531V36.8C62.5531 33.4 62.9531 30.95 62.9531 29.45V7L51.6531 37H49.3531V36.95L48.9031 37L37.1531 7.15C37.1198 7.45 37.1031 7.93333 37.1031 8.6V26.35C37.1031 27.3833 37.2031 28.5167 37.4031 29.75C37.6365 30.9833 37.8698 31.9833 38.1031 32.75C38.3365 33.5167 38.6031 34.3667 38.9031 35.3C39.2031 36.2 39.3698 36.6833 39.4031 36.75V37H32.6531V36.75C32.6865 36.6833 32.8531 36.1833 33.1531 35.25ZM78.9582 5.65C82.1915 2.21667 86.2915 0.499999 91.2582 0.499999C94.5915 0.499999 98.5082 1.26667 103.008 2.8V10.85H102.708C99.0749 5.35 95.4582 2.6 91.8582 2.6C88.9249 2.6 86.4582 4.18333 84.4582 7.35C82.4915 10.4833 81.5082 14.3667 81.5082 19C81.5082 23.6333 82.5249 27.55 84.5582 30.75C86.6249 33.9167 89.0749 35.5 91.9082 35.5C93.7415 35.5 95.5915 34.7167 97.4582 33.15C99.3582 31.55 101.108 29.55 102.708 27.15H103.008V35.3C98.3415 36.8333 94.3415 37.6 91.0082 37.6C86.2415 37.6 82.2249 35.8667 78.9582 32.4C75.6915 28.9333 74.0582 24.4833 74.0582 19.05C74.0582 13.55 75.6915 9.08333 78.9582 5.65Z" fill="white"/>
</svg>
