<svg width="1920" height="603" viewBox="0 0 1920 603" fill="none" xmlns="http://www.w3.org/2000/svg">
<path fill-rule="evenodd" clip-rule="evenodd" d="M1537.56 469.687V308.118H1559.32C1572.65 308.118 1583.9 309.487 1593.08 312.226C1602.26 314.66 1610.85 318.92 1618.84 325.005C1634.54 337.176 1651.86 359.844 1670.81 393.01C1689.76 426.48 1708.57 464.971 1727.22 508.482L1758.32 581.051C1759.94 584.629 1763.2 591.945 1768.1 603H1630.83V602.503C1613.66 601.59 1599.74 599.156 1589.08 595.2C1578.72 590.94 1569.54 584.55 1561.54 576.031C1552.36 566.294 1546 553.971 1542.44 539.062C1539.18 523.848 1537.56 500.723 1537.56 469.687ZM1347 603H0V3.60947e-08H1347V0.497436C1363.88 1.41026 1377.65 3.84444 1388.31 7.8C1398.97 11.7556 1408.3 18.1453 1416.29 26.9692C1425.77 36.706 1432.14 49.0291 1435.39 63.9385C1438.65 78.8479 1440.28 101.973 1440.28 133.313V469.687C1440.28 501.027 1438.65 524.152 1435.39 539.062C1432.14 553.971 1425.77 566.294 1416.29 576.031C1408.3 584.55 1398.97 590.94 1388.31 595.2C1377.94 599.156 1364.18 601.59 1347 602.503V603ZM1708.61 0C1720.18 2.68554 1730.53 5.89409 1739.66 9.62564C1768.98 21.7966 1791.63 40.053 1807.62 64.3949C1823.91 88.4325 1832.05 116.426 1832.05 148.374C1832.05 195.841 1814.58 233.875 1779.64 262.477C1768.98 270.997 1757.13 277.995 1744.1 283.472C1731.37 288.949 1714.19 294.121 1692.58 298.99C1710.34 306.597 1723.52 314.508 1732.11 322.723C1738.92 329.113 1745.14 337.176 1750.77 346.913C1756.39 356.345 1764.83 373.232 1776.08 397.574C1802.44 453.256 1822.28 494.029 1835.6 519.892C1849.23 545.451 1860.63 564.012 1869.81 575.574C1877.21 585.007 1884.32 591.549 1891.13 595.2C1898.23 598.851 1907.86 601.285 1920 602.503V3.60947e-08L1708.61 0ZM1554.43 298.077H1537.56V4.14872H1555.77C1587.45 4.14872 1611.88 6.27863 1629.06 10.5385C1646.23 14.494 1661.04 21.6444 1673.48 31.9897C1689.47 45.682 1701.9 63.1778 1710.79 84.4769C1719.97 105.472 1724.56 127.988 1724.56 152.026C1724.56 197.058 1709.01 234.788 1677.92 265.215C1664 278.603 1649.05 287.427 1633.06 291.687C1617.36 295.947 1591.15 298.077 1554.43 298.077Z" fill="#23272F"/>
</svg>
