<svg width="93" height="37" viewBox="0 0 93 37" fill="none" xmlns="http://www.w3.org/2000/svg">
<path d="M0.528 1.632V1.44H9.024V1.632C8.864 1.92 8.784 2.464 8.784 3.264C8.784 3.616 8.816 4.272 8.88 5.232C8.944 6.192 9.216 7.344 9.696 8.688L18.432 31.968L26.112 10.032C26.688 8.464 26.976 6.8 26.976 5.04C26.976 3.28 26.832 2.144 26.544 1.632V1.44H31.968V1.584C30.592 3.952 29.344 6.72 28.224 9.888L19.008 36H14.304L3.936 8.592C3.008 6.128 1.872 3.808 0.528 1.632ZM33.8978 12.24V12.096H39.8498V29.04C39.8498 29.712 39.8978 30.432 39.9938 31.2C40.0898 31.968 40.1858 32.608 40.2818 33.12C40.3778 33.632 40.4898 34.192 40.6178 34.8C40.7458 35.376 40.8258 35.728 40.8578 35.856V36H33.8978V35.856C34.5698 32.912 34.9058 30.64 34.9058 29.04L34.9538 19.056C34.9538 17.616 34.6018 15.344 33.8978 12.24ZM33.7058 3.6C33.7058 2.64 34.0418 1.84 34.7138 1.2C35.3858 0.527998 36.2018 0.191998 37.1618 0.191998C38.1218 0.191998 38.9378 0.527998 39.6098 1.2C40.2818 1.84 40.6178 2.64 40.6178 3.6C40.6178 4.528 40.2818 5.312 39.6098 5.952C38.9058 6.624 38.0898 6.96 37.1618 6.96C36.2338 6.96 35.4178 6.64 34.7138 6C34.0418 5.328 33.7058 4.528 33.7058 3.6ZM47.2118 13.632C48.9078 12.416 51.0838 11.808 53.7398 11.808C56.4278 11.808 59.1798 12.464 61.9958 13.776V19.056H61.8038C58.7318 15.376 55.9158 13.536 53.3558 13.536C52.1398 13.536 51.0998 13.84 50.2358 14.448C49.3718 15.024 48.9398 15.856 48.9398 16.944C48.9398 18.032 49.4038 18.864 50.3318 19.44C51.2598 19.984 52.8278 20.624 55.0358 21.36C55.0998 21.36 55.1478 21.376 55.1797 21.408C55.2438 21.408 55.3078 21.424 55.3718 21.456C57.9958 22.352 59.8838 23.376 61.0358 24.528C62.2198 25.68 62.8118 27.168 62.8118 28.992C62.8118 31.392 61.9638 33.232 60.2678 34.512C58.5718 35.76 56.4758 36.384 53.9798 36.384C51.2918 36.384 48.2998 35.632 45.0038 34.128V28.512H45.1478C46.2038 29.696 47.1158 30.672 47.8838 31.44C48.6518 32.176 49.6278 32.896 50.8118 33.6C52.0278 34.272 53.1958 34.608 54.3158 34.608C55.5318 34.608 56.5718 34.288 57.4358 33.648C58.3318 32.976 58.7798 32.048 58.7798 30.864C58.7798 29.712 58.3158 28.816 57.3878 28.176C56.4598 27.536 54.8438 26.816 52.5398 26.016C49.8838 25.12 47.8998 24.128 46.5878 23.04C45.3078 21.952 44.6678 20.512 44.6678 18.72C44.6678 16.576 45.5158 14.88 47.2118 13.632ZM66.6165 12.24V12.096H72.5685V29.04C72.5685 29.712 72.6165 30.432 72.7125 31.2C72.8085 31.968 72.9045 32.608 73.0005 33.12C73.0965 33.632 73.2085 34.192 73.3365 34.8C73.4645 35.376 73.5445 35.728 73.5765 35.856V36H66.6165V35.856C67.2885 32.912 67.6245 30.64 67.6245 29.04L67.6725 19.056C67.6725 17.616 67.3205 15.344 66.6165 12.24ZM66.4245 3.6C66.4245 2.64 66.7605 1.84 67.4325 1.2C68.1045 0.527998 68.9205 0.191998 69.8805 0.191998C70.8405 0.191998 71.6565 0.527998 72.3285 1.2C73.0005 1.84 73.3365 2.64 73.3365 3.6C73.3365 4.528 73.0005 5.312 72.3285 5.952C71.6245 6.624 70.8085 6.96 69.8805 6.96C68.9525 6.96 68.1365 6.64 67.4325 6C66.7605 5.328 66.4245 4.528 66.4245 3.6ZM76.3271 12.48C78.3111 11.84 79.9111 10.912 81.1271 9.696C82.3431 8.448 83.3991 6.896 84.2951 5.04H84.7751V12.096H91.4471V13.92H84.7751L84.8231 28.992C84.8231 31.68 85.9751 33.024 88.2791 33.024C89.6871 33.024 91.1111 32.56 92.5511 31.632C91.9111 33.04 90.9831 34.192 89.7671 35.088C88.5831 35.952 87.2071 36.384 85.6391 36.384C83.7831 36.384 82.3431 35.776 81.3191 34.56C80.3271 33.344 79.8311 31.696 79.8311 29.616V13.92H76.3271V12.48Z" fill="white"/>
</svg>
